<svg width="25" height="13" viewBox="0 0 25 13" fill="none" xmlns="http://www.w3.org/2000/svg">
<path fill-rule="evenodd" clip-rule="evenodd" d="M0 4C0 1.79086 1.79086 0 4 0H18C20.2091 0 22 1.79086 22 4V9C22 11.2091 20.2091 13 18 13H4C1.79086 13 0 11.2091 0 9V4Z" fill="#B2B2B2"/>
<path d="M0 4C0 1.79086 1.79086 0 4 0H16V13H4C1.79086 13 0 11.2091 0 9V4Z" fill="black"/>
<path d="M23 4.80859V8.86662C23.8164 8.52293 24.3473 7.7234 24.3473 6.83761C24.3473 5.95181 23.8164 5.15228 23 4.80859Z" fill="#B2B2B2"/>
<path d="M5.1084 10L8.11133 4.25293V4.16504H4.55664V2.94922H9.5957V4.17969L6.65137 10H5.1084Z" fill="white"/>
<path d="M13.5961 10.1807C13.0851 10.1807 12.6293 10.0716 12.2289 9.85352C11.8318 9.63542 11.5128 9.31966 11.2719 8.90625C10.878 8.30078 10.6811 7.50814 10.6811 6.52832C10.6811 5.3597 10.9415 4.44173 11.4623 3.77441C11.9832 3.1071 12.7026 2.77344 13.6205 2.77344C14.2911 2.77344 14.8624 2.9541 15.3344 3.31543C15.8097 3.67676 16.0978 4.15202 16.1987 4.74121H14.7387C14.6704 4.51009 14.5336 4.32617 14.3286 4.18945C14.1267 4.05273 13.8875 3.98438 13.6108 3.98438C13.129 3.98438 12.7498 4.20085 12.4731 4.63379C12.1996 5.06348 12.0711 5.64453 12.0873 6.37695H12.1752C12.3347 6.04492 12.5707 5.78939 12.8832 5.61035C13.199 5.42806 13.562 5.33691 13.9721 5.33691C14.6394 5.33691 15.1928 5.55827 15.6323 6.00098C16.0717 6.44368 16.2914 7.00195 16.2914 7.67578C16.2914 8.4082 16.0392 9.00879 15.5346 9.47754C15.0301 9.94629 14.3839 10.1807 13.5961 10.1807ZM12.6733 8.6084C12.9174 8.84928 13.2202 8.96973 13.5815 8.96973C13.9428 8.96973 14.2455 8.85091 14.4897 8.61328C14.7371 8.3724 14.8608 8.07454 14.8608 7.71973C14.8608 7.36165 14.7403 7.06543 14.4995 6.83105C14.2586 6.59342 13.9542 6.47461 13.5864 6.47461C13.2185 6.47461 12.9125 6.5918 12.6684 6.82617C12.4275 7.06055 12.3071 7.35352 12.3071 7.70508C12.3071 8.06315 12.4291 8.36426 12.6733 8.6084Z" fill="white"/>
</svg>
