<svg width="17" height="12" viewBox="0 0 17 12" fill="none" xmlns="http://www.w3.org/2000/svg">
<path fill-rule="evenodd" clip-rule="evenodd" d="M8.17352 2.48801C10.5452 2.48811 12.8262 3.41832 14.5451 5.08636C14.6745 5.21514 14.8814 5.21352 15.0089 5.08272L16.2461 3.80813C16.3107 3.74179 16.3467 3.65192 16.3461 3.55843C16.3456 3.46493 16.3086 3.3755 16.2433 3.30994C11.7318 -1.10331 4.6145 -1.10331 0.103041 3.30994C0.0376897 3.37546 0.000610076 3.46485 7.46089e-06 3.55835C-0.000595154 3.65185 0.035329 3.74174 0.0998304 3.80813L1.33746 5.08272C1.46486 5.21372 1.67191 5.21534 1.80126 5.08636C3.52034 3.41821 5.8016 2.488 8.17352 2.48801ZM8.20761 6.33594C9.5107 6.33586 10.7673 6.83026 11.7332 7.72307C11.8638 7.84978 12.0696 7.84703 12.197 7.71688L13.4329 6.44228C13.4979 6.37542 13.534 6.28473 13.5331 6.19048C13.5322 6.09623 13.4943 6.00631 13.4279 5.94081C10.4864 3.14794 5.93127 3.14794 2.98985 5.94081C2.92341 6.00631 2.8855 6.09628 2.88463 6.19055C2.88376 6.28483 2.92 6.37552 2.98522 6.44228L4.22071 7.71688C4.34806 7.84703 4.55386 7.84978 4.68451 7.72307C5.64979 6.83085 6.90538 6.33649 8.20761 6.33594ZM10.7207 8.82377C10.7226 8.91828 10.6862 9.0094 10.6201 9.07561L8.48236 11.2777C8.41969 11.3425 8.33425 11.3789 8.2451 11.3789C8.15596 11.3789 8.07052 11.3425 8.00785 11.2777L5.86973 9.07561C5.80368 9.00935 5.76735 8.9182 5.76931 8.82369C5.77126 8.72918 5.81134 8.63968 5.88008 8.57633C7.24533 7.39764 9.24487 7.39764 10.6101 8.57633C10.6788 8.63973 10.7188 8.72926 10.7207 8.82377Z" fill="black"/>
</svg>
